<svg width="48" height="48" viewBox="0 0 48 48" fill="none" xmlns="http://www.w3.org/2000/svg">
<path d="M41.276 28.272L41.078 26.282L41.012 26.288L40.948 26.3L41.276 28.272ZM41.276 28.272L41.476 30.262L41.542 30.256L41.606 30.246L41.276 28.272ZM33.196 39.236L34.462 37.688L34.446 37.676L33.196 39.236ZM33.196 39.236L31.93 40.784L31.946 40.798L33.196 39.236ZM14.804 39.236L13.538 37.69L13.506 37.716L13.476 37.742L14.804 39.236ZM14.804 39.236L16.07 40.786L16.102 40.76L16.132 40.732L14.804 39.236ZM6.72204 19.728V17.728H6.62204L6.52404 17.738L6.72204 19.728ZM6.72204 19.728V21.728H6.82204L6.92204 21.718L6.72204 19.728ZM30.262 6.52198C30.2291 6.13729 30.1817 5.75376 30.124 5.37198C30.0623 4.95169 29.934 4.54391 29.744 4.16398L26.19 5.99998C26.144 5.90998 26.154 5.87798 26.18 6.03598C26.21 6.21398 26.236 6.46198 26.282 6.92198L30.262 6.52198ZM30.452 8.42198C30.578 8.58598 30.536 8.65998 30.466 8.26998C30.4 7.89798 30.348 7.37598 30.262 6.52198L26.28 6.91998C26.36 7.70798 26.428 8.41598 26.53 8.97998C26.628 9.51998 26.8 10.23 27.27 10.846L30.452 8.42198ZM30.452 8.42198L27.27 10.846C27.6981 11.4077 28.2672 11.846 28.9195 12.1165C29.5718 12.387 30.2841 12.48 30.984 12.386L30.452 8.42198ZM31.928 7.21198C31.4798 7.59081 31.0189 7.95435 30.546 8.30198C30.22 8.52798 30.246 8.44798 30.452 8.42198L30.984 12.386C31.752 12.282 32.376 11.902 32.828 11.586C33.298 11.262 33.848 10.81 34.46 10.308L31.928 7.21198ZM33.96 5.91198C33.5574 6.04591 33.1787 6.24304 32.838 6.49598C32.558 6.69598 32.244 6.95398 31.928 7.21198L34.46 10.308C34.818 10.016 35.012 9.85798 35.16 9.75398C35.29 9.65998 35.272 9.69198 35.178 9.72198L33.96 5.91198ZM36.768 6.05198C35.8798 5.66707 34.8821 5.61733 33.96 5.91198L35.178 9.72198L36.768 6.05198ZM38.66 7.54798C38.3907 7.2711 38.1126 7.00296 37.826 6.74398C37.5117 6.45851 37.1539 6.22492 36.766 6.05198L35.178 9.72198C35.086 9.68198 35.072 9.64998 35.192 9.75598C35.328 9.87598 35.506 10.05 35.832 10.376L38.66 7.54798ZM40.448 9.33598L38.66 7.54798L35.832 10.376L37.62 12.164L40.448 9.33598ZM41.944 11.228C41.7711 10.8402 41.5375 10.4823 41.252 10.168C40.993 9.8821 40.7249 9.60463 40.448 9.33598L37.62 12.166C37.946 12.492 38.12 12.67 38.24 12.806C38.346 12.926 38.314 12.912 38.274 12.82L41.944 11.228ZM42.084 14.036C42.3787 13.1139 42.329 12.1162 41.944 11.228L38.274 12.82L42.084 14.036ZM40.784 16.068C41.0324 15.7724 41.2712 15.4689 41.5 15.158C41.712 14.862 41.94 14.494 42.084 14.036L38.274 12.82C38.304 12.726 38.334 12.706 38.242 12.838C38.138 12.984 37.982 13.178 37.688 13.536L40.784 16.068ZM39.574 17.546C39.548 17.752 39.468 17.776 39.694 17.45C39.908 17.14 40.24 16.732 40.784 16.068L37.688 13.536C37.188 14.148 36.734 14.698 36.408 15.168C36.094 15.62 35.714 16.244 35.61 17.012L39.574 17.546ZM39.574 17.546L35.61 17.012C35.516 17.7119 35.609 18.4242 35.8795 19.0765C36.15 19.7289 36.5883 20.298 37.15 20.726L39.574 17.546ZM41.474 17.736C40.8892 17.6871 40.3062 17.6184 39.726 17.53C39.336 17.46 39.41 17.42 39.574 17.546L37.15 20.726C37.766 21.196 38.474 21.368 39.018 21.466C39.58 21.566 40.288 21.636 41.076 21.716L41.474 17.736ZM43.832 18.252C43.4521 18.062 43.0443 17.9337 42.624 17.872C42.2423 17.8143 41.8587 17.769 41.474 17.736L41.076 21.716C41.3722 21.742 41.6676 21.7753 41.962 21.816C42.122 21.844 42.088 21.854 41.998 21.808L43.832 18.252ZM45.718 20.338C45.3626 19.4373 44.6925 18.6961 43.832 18.252L42 21.812L45.718 20.338ZM45.998 22.734C45.998 22.326 45.998 21.92 45.976 21.576C45.9558 21.1515 45.868 20.7329 45.716 20.336L42 21.812C41.964 21.718 41.976 21.686 41.988 21.846C42 22.026 42 22.276 42 22.738L45.998 22.734ZM45.998 25.262V22.734H41.998V25.262H45.998ZM45.718 27.658C45.894 27.212 45.952 26.784 45.976 26.418C45.998 26.076 45.998 25.67 45.998 25.262H41.998C41.998 25.724 41.998 25.974 41.986 26.154C41.974 26.314 41.962 26.282 41.998 26.188L45.718 27.658ZM43.832 29.744C44.6925 29.2998 45.3626 28.5587 45.718 27.658L42 26.19L43.832 29.744ZM41.474 30.26C41.882 30.22 42.284 30.18 42.624 30.124C42.984 30.064 43.404 29.964 43.832 29.744L42 26.19C42.088 26.144 42.122 26.154 41.964 26.18C41.6697 26.2222 41.3743 26.2562 41.078 26.282L41.474 30.26ZM39.576 30.45C39.41 30.576 39.336 30.536 39.726 30.466C40.098 30.4 40.62 30.346 41.474 30.26L41.076 26.28C40.29 26.36 39.58 26.428 39.018 26.53C38.476 26.628 37.766 26.8 37.15 27.27L39.576 30.45ZM39.576 30.45L37.15 27.27C36.5883 27.698 36.15 28.2671 35.8795 28.9194C35.609 29.5718 35.516 30.2841 35.61 30.984L39.576 30.45ZM40.784 31.926C40.4053 31.4784 40.0417 31.0181 39.694 30.546C39.468 30.22 39.55 30.244 39.576 30.45L35.61 30.984C35.714 31.752 36.094 32.376 36.41 32.828C36.736 33.298 37.188 33.848 37.688 34.46L40.784 31.926ZM42.084 33.958C41.9499 33.5561 41.7528 33.178 41.5 32.838C41.3 32.556 41.042 32.244 40.784 31.926L37.688 34.46C37.98 34.818 38.138 35.01 38.242 35.158C38.336 35.288 38.306 35.272 38.274 35.178L42.084 33.958ZM41.944 36.768C42.3294 35.8792 42.3792 34.8807 42.084 33.958L38.274 35.178L41.944 36.768ZM40.448 38.66C40.738 38.37 41.024 38.086 41.252 37.826C41.492 37.55 41.752 37.208 41.944 36.766L38.274 35.176C38.314 35.084 38.346 35.072 38.24 35.192C38.12 35.328 37.946 35.504 37.62 35.832L40.448 38.66ZM38.66 40.446L40.448 38.66L37.62 35.832L35.832 37.618L38.66 40.446ZM36.768 41.944C37.156 41.7704 37.5138 41.5362 37.828 41.25C38.086 41.024 38.372 40.736 38.66 40.446L35.832 37.618C35.6245 37.8305 35.4111 38.0373 35.192 38.238C35.072 38.346 35.086 38.314 35.178 38.274L36.768 41.944ZM33.96 42.084C34.8821 42.3786 35.8798 42.3289 36.768 41.944L35.178 38.274L33.96 42.084ZM31.928 40.784C32.244 41.042 32.556 41.3 32.838 41.5C33.134 41.71 33.502 41.938 33.96 42.084L35.178 38.274C35.272 38.304 35.29 38.334 35.158 38.242C34.9203 38.0638 34.6875 37.8791 34.46 37.688L31.928 40.784ZM30.452 39.576C30.246 39.546 30.22 39.466 30.546 39.692C30.856 39.908 31.262 40.238 31.926 40.782L34.46 37.688C33.848 37.186 33.298 36.734 32.828 36.408C32.376 36.092 31.752 35.714 30.984 35.61L30.452 39.576ZM30.452 39.576L30.984 35.61C30.2841 35.516 29.5718 35.6089 28.9195 35.8794C28.2672 36.1499 27.6981 36.5883 27.27 37.15L30.452 39.576ZM30.26 41.474C30.346 40.62 30.4 40.096 30.466 39.726C30.536 39.336 30.576 39.408 30.45 39.574L27.27 37.148C26.8 37.764 26.628 38.474 26.53 39.016C26.43 39.58 26.362 40.288 26.282 41.076L30.26 41.474ZM29.742 43.832C29.962 43.404 30.062 42.984 30.122 42.624C30.182 42.284 30.218 41.882 30.26 41.474L26.282 41.076C26.2557 41.3729 26.221 41.667 26.178 41.962C26.152 42.122 26.142 42.088 26.188 41.998L29.742 43.832ZM27.66 45.718C28.5592 45.3617 29.2989 44.6917 29.742 43.832L26.19 42L27.66 45.718ZM25.26 45.998C25.67 45.998 26.076 45.998 26.42 45.976C26.784 45.952 27.212 45.898 27.66 45.718L26.19 42C26.284 41.964 26.316 41.976 26.156 41.988C25.8589 42.0003 25.5614 42.0043 25.264 42L25.26 45.998ZM22.734 45.998H25.26L25.262 41.998H22.734V45.998ZM20.338 45.718C20.784 45.894 21.212 45.952 21.578 45.976C21.92 45.998 22.326 45.998 22.734 45.998V41.998C22.272 41.998 22.022 41.998 21.842 41.986C21.682 41.974 21.714 41.962 21.808 41.998L20.338 45.718ZM18.252 43.832C18.6962 44.6924 19.4374 45.3625 20.338 45.718L21.808 41.998L18.252 43.832ZM17.736 41.474C17.776 41.882 17.816 42.284 17.872 42.624C17.932 42.984 18.032 43.404 18.252 43.832L21.812 42C21.858 42.088 21.848 42.122 21.822 41.964C21.7798 41.6697 21.7458 41.3742 21.72 41.078L17.736 41.474ZM17.546 39.574C17.42 39.41 17.46 39.334 17.53 39.726C17.596 40.096 17.65 40.62 17.736 41.474L21.716 41.076C21.636 40.288 21.568 39.58 21.466 39.016C21.368 38.476 21.196 37.766 20.726 37.15L17.546 39.574ZM17.546 39.574L20.726 37.15C20.298 36.5883 19.7289 36.1499 19.0766 35.8794C18.4243 35.6089 17.7119 35.516 17.012 35.61L17.546 39.574ZM16.068 40.784C16.734 40.24 17.14 39.908 17.45 39.694C17.776 39.468 17.752 39.548 17.546 39.574L17.012 35.61C16.244 35.714 15.62 36.094 15.168 36.41C14.698 36.734 14.148 37.186 13.536 37.688L16.068 40.784ZM14.036 42.084C14.4386 41.9501 14.8174 41.7529 15.158 41.5C15.438 41.3 15.752 41.042 16.068 40.784L13.538 37.69C13.3099 37.8811 13.0785 38.0659 12.84 38.244C12.71 38.338 12.728 38.308 12.822 38.276L14.036 42.084ZM11.228 41.944C12.1163 42.3289 13.1139 42.3786 14.036 42.084L12.818 38.274L11.228 41.944ZM9.33404 40.448C9.62404 40.738 9.91004 41.024 10.17 41.252C10.444 41.492 10.786 41.754 11.23 41.946L12.818 38.274C12.91 38.314 12.924 38.346 12.804 38.24C12.585 38.0393 12.3716 37.8325 12.164 37.62L9.33404 40.448ZM7.54804 38.66L9.33604 40.448L12.164 37.62L10.376 35.832L7.54804 38.66ZM6.05204 36.768C6.24204 37.208 6.50404 37.552 6.74404 37.828C6.97204 38.086 7.25804 38.372 7.54804 38.66L10.376 35.832C10.1635 35.6244 9.95673 35.411 9.75604 35.192C9.65004 35.072 9.68204 35.086 9.72204 35.178L6.05204 36.768ZM5.91204 33.96C5.61739 34.8821 5.66713 35.8798 6.05204 36.768L9.72204 35.178L5.91204 33.96ZM7.21204 31.928C6.96368 32.2236 6.72489 32.527 6.49604 32.838C6.2431 33.1786 6.04597 33.5574 5.91204 33.96L9.72204 35.178C9.69004 35.272 9.66204 35.29 9.75404 35.158C9.85804 35.012 10.014 34.818 10.308 34.46L7.21204 31.928ZM8.42004 30.45C8.44804 30.244 8.52804 30.22 8.30204 30.546C8.08804 30.856 7.75604 31.264 7.21204 31.928L10.308 34.46C10.808 33.848 11.262 33.298 11.588 32.828C11.902 32.376 12.282 31.752 12.386 30.984L8.42004 30.45ZM8.42004 30.45L12.386 30.984C12.48 30.2841 12.3871 29.5718 12.1166 28.9194C11.8461 28.2671 11.4077 27.698 10.846 27.27L8.42004 30.45ZM6.52004 30.26C7.37604 30.346 7.90004 30.4 8.27004 30.466C8.66004 30.536 8.58604 30.576 8.42004 30.45L10.846 27.27C10.23 26.8 9.52204 26.628 8.97804 26.53C8.41604 26.43 7.70804 26.36 6.91804 26.28L6.52004 30.26ZM4.16404 29.744C4.59204 29.964 5.01204 30.064 5.37204 30.124C5.71204 30.18 6.11404 30.222 6.52204 30.262L6.91804 26.28C6.62184 26.2549 6.32839 26.2215 6.03404 26.18C5.87404 26.152 5.90804 26.142 5.99804 26.188L4.16404 29.744ZM2.28004 27.66C2.6355 28.5607 3.30561 29.3018 4.16604 29.746L6.00004 26.19L2.28004 27.66ZM2.00004 25.264C2.00004 25.672 2.00004 26.078 2.02204 26.422C2.04604 26.786 2.10204 27.214 2.28204 27.662L6.00004 26.188C6.03604 26.282 6.02404 26.314 6.01404 26.154C6.00112 25.8575 5.99645 25.5607 6.00004 25.264H2.00004ZM2.00004 22.736V25.264H6.00004V22.736H2.00004ZM2.28004 20.338C2.12873 20.735 2.04164 21.1536 2.02204 21.578C1.99804 21.922 2.00004 22.328 2.00004 22.738H6.00004C6.00004 22.274 6.00004 22.024 6.01404 21.844C6.02404 21.684 6.03604 21.716 6.00004 21.81L2.28004 20.338ZM4.16604 18.256C3.30633 18.6991 2.63632 19.4388 2.28004 20.338L6.00004 21.81L4.16604 18.256ZM6.52404 17.736C6.11604 17.778 5.71404 17.816 5.37404 17.876C5.01404 17.936 4.59404 18.036 4.16604 18.256L6.00004 21.81C5.91004 21.856 5.87804 21.846 6.03604 21.82C6.33037 21.7778 6.62582 21.7437 6.92204 21.718L6.52404 17.736ZM8.42404 17.548C8.59004 17.422 8.66404 17.462 8.27204 17.532C7.90204 17.598 7.37804 17.652 6.52404 17.738L6.92204 21.718C7.70804 21.638 8.41804 21.57 8.98204 21.468C9.52404 21.37 10.234 21.198 10.85 20.728L8.42404 17.548ZM8.42404 17.548L10.85 20.728C11.4114 20.2997 11.8493 19.7305 12.1195 19.0782C12.3896 18.4259 12.4823 17.7137 12.388 17.014L8.42404 17.548ZM7.21404 16.07C7.75804 16.734 8.09004 17.142 8.30604 17.452C8.53204 17.778 8.45204 17.754 8.42404 17.548L12.388 17.014C12.284 16.246 11.906 15.624 11.59 15.17C11.264 14.7 10.81 14.15 10.31 13.538L7.21404 16.07ZM5.91404 14.036C6.06004 14.496 6.28604 14.862 6.49804 15.16C6.69804 15.44 6.95604 15.754 7.21404 16.07L10.31 13.538C10.1189 13.3098 9.93416 13.0784 9.75604 12.84C9.66204 12.71 9.69404 12.726 9.72404 12.82L5.91404 14.036ZM6.05404 11.23C5.66963 12.1176 5.61989 13.1145 5.91404 14.036L9.72404 12.82L6.05404 11.23ZM7.55004 9.33598C7.26004 9.62598 6.97404 9.90998 6.74604 10.17C6.46057 10.4843 6.22698 10.8422 6.05404 11.23L9.72404 12.82C9.68404 12.912 9.65204 12.926 9.75804 12.804C9.87804 12.668 10.052 12.492 10.378 12.164L7.55004 9.33598ZM9.33804 7.54998L7.55004 9.33598L10.378 12.164L12.168 10.378L9.33804 7.54998ZM11.23 6.05198C10.8421 6.22553 10.4843 6.4598 10.17 6.74598C9.88416 7.00499 9.60669 7.27313 9.33804 7.54998L12.168 10.378C12.494 10.05 12.67 9.87598 12.806 9.75798C12.926 9.64998 12.912 9.68198 12.82 9.72198L11.23 6.05198ZM14.038 5.91198C13.1159 5.61733 12.1183 5.66707 11.23 6.05198L12.82 9.72198L14.038 5.91198ZM16.068 7.21198C15.752 6.95398 15.442 6.69798 15.16 6.49798C14.8195 6.24433 14.4408 6.04652 14.038 5.91198L12.82 9.72198C12.726 9.69198 12.708 9.66198 12.84 9.75398C12.986 9.85998 13.18 10.016 13.538 10.31L16.068 7.21198ZM17.548 8.42198C17.754 8.44998 17.778 8.52998 17.452 8.30398C16.9799 7.95631 16.5196 7.59277 16.072 7.21398L13.538 10.31C14.15 10.81 14.698 11.262 15.168 11.59C15.62 11.904 16.244 12.282 17.012 12.386L17.548 8.42198ZM17.548 8.42198L17.014 12.386C17.7139 12.48 18.4263 12.387 19.0786 12.1165C19.7309 11.846 20.3 11.4077 20.728 10.846L17.548 8.42198ZM17.738 6.52198C17.652 7.37798 17.598 7.90198 17.532 8.27198C17.462 8.66198 17.422 8.58798 17.548 8.42198L20.728 10.846C21.198 10.23 21.37 9.52198 21.468 8.97998C21.568 8.41798 21.64 7.70798 21.718 6.91998L17.738 6.52198ZM18.254 4.16598C18.064 4.54591 17.9358 4.95369 17.874 5.37398C17.818 5.71398 17.778 6.11598 17.738 6.52398L21.718 6.91998C21.7441 6.62387 21.7774 6.33044 21.818 6.03598C21.846 5.87598 21.856 5.91198 21.81 5.99998L18.254 4.16598ZM20.34 2.27998C19.4394 2.63544 18.6982 3.30555 18.254 4.16598L21.81 5.99998L20.34 2.27998ZM22.736 1.99998C22.328 1.99998 21.922 1.99998 21.578 2.02198C21.1536 2.04158 20.735 2.12867 20.338 2.27998L21.812 5.99998C21.718 6.03598 21.686 6.02398 21.846 6.01398C22.026 6.00198 22.276 5.99998 22.738 5.99998L22.736 1.99998ZM25.264 1.99998H22.736V5.99998H25.264V1.99998ZM27.66 2.27998C27.263 2.12867 26.8445 2.04158 26.42 2.02198C26.08 1.99798 25.674 1.99998 25.266 1.99998V5.99998C25.728 5.99998 25.978 5.99998 26.158 6.01398C26.318 6.02398 26.284 6.03598 26.19 5.99998L27.66 2.27998ZM29.746 4.16598C29.3019 3.30555 28.5607 2.63544 27.66 2.27998L26.19 5.99998L29.746 4.16598ZM30 24C30 25.5913 29.3679 27.1174 28.2427 28.2426C27.1175 29.3678 25.5913 30 24 30V34C26.6522 34 29.1957 32.9464 31.0711 31.071C32.9465 29.1957 34 26.6521 34 24H30ZM24 18C25.5913 18 27.1175 18.6321 28.2427 19.7573C29.3679 20.8826 30 22.4087 30 24H34C34 21.3478 32.9465 18.8043 31.0711 16.9289C29.1957 15.0535 26.6522 14 24 14V18ZM18 24C18 22.4087 18.6322 20.8826 19.7574 19.7573C20.8826 18.6321 22.4087 18 24 18V14C21.3479 14 18.8043 15.0535 16.929 16.9289C15.0536 18.8043 14 21.3478 14 24H18ZM24 30C22.4087 30 20.8826 29.3678 19.7574 28.2426C18.6322 27.1174 18 25.5913 18 24H14C14 26.6521 15.0536 29.1957 16.929 31.071C18.8043 32.9464 21.3479 34 24 34V30Z" fill="black"/>
</svg>
