<svg width="47" height="47" viewBox="0 0 47 47" fill="none" xmlns="http://www.w3.org/2000/svg">
<path d="M23.5 7.83335C21.6822 7.83335 19.9388 8.55549 18.6534 9.84089C17.368 11.1263 16.6458 12.8697 16.6458 14.6875C16.6458 16.5054 17.368 18.2487 18.6534 19.5341C19.9388 20.8196 21.6822 21.5417 23.5 21.5417C25.3178 21.5417 27.0612 20.8196 28.3466 19.5341C29.632 18.2487 30.3542 16.5054 30.3542 14.6875C30.3542 12.8697 29.632 11.1263 28.3466 9.84089C27.0612 8.55549 25.3178 7.83335 23.5 7.83335ZM12.7292 14.6875C12.7292 11.8309 13.8639 9.09131 15.8839 7.07139C17.9038 5.05147 20.6434 3.91669 23.5 3.91669C26.3566 3.91669 29.0962 5.05147 31.1161 7.07139C33.1361 9.09131 34.2708 11.8309 34.2708 14.6875C34.2708 17.5441 33.1361 20.2837 31.1161 22.3036C29.0962 24.3236 26.3566 25.4584 23.5 25.4584C20.6434 25.4584 17.9038 24.3236 15.8839 22.3036C13.8639 20.2837 12.7292 17.5441 12.7292 14.6875ZM5.875 37.2084C5.875 34.6114 6.90662 32.1209 8.74291 30.2846C10.5792 28.4483 13.0698 27.4167 15.6667 27.4167H31.3333C33.9302 27.4167 36.4208 28.4483 38.2571 30.2846C40.0934 32.1209 41.125 34.6114 41.125 37.2084V43.0834H5.875V37.2084ZM15.6667 31.3334C14.1085 31.3334 12.6142 31.9523 11.5124 33.0541C10.4106 34.1559 9.79167 35.6502 9.79167 37.2084V39.1667H37.2083V37.2084C37.2083 35.6502 36.5894 34.1559 35.4876 33.0541C34.3858 31.9523 32.8915 31.3334 31.3333 31.3334H15.6667Z" fill="black"/>
</svg>
